<?xml version="1.0" encoding="utf-8"?>
<!-- Generator: Adobe Illustrator 26.0.1, SVG Export Plug-In . SVG Version: 6.00 Build 0)  -->
<svg version="1.1" id="图层_1" xmlns="http://www.w3.org/2000/svg" xmlns:xlink="http://www.w3.org/1999/xlink" x="0px" y="0px"
	 viewBox="0 0 500 500" style="enable-background:new 0 0 500 500;" xml:space="preserve">
<style type="text/css">
	.st0{fill:#39B6BD;}
	.st1{fill:#1B4DB2;}
	.st2{fill:#00BFFF;}
	.st3{fill:#C5FCFF;}
</style>
<circle class="st0" cx="250" cy="250" r="250"/>
<g id="LOGO">
	<path id="描边-底" class="st1" d="M261.43,380.24c-3.96,0-7.91-0.12-11.73-0.34c-4.91-0.29-9.82-0.56-14.72-0.83
		c-38.91-2.15-79.14-4.37-117.89-17.14c-26.93-8.87-47.3-24.26-58.91-44.5c-11.66-20.32-14.55-45.66-8.36-73.27
		c7.5-33.46,21.11-64.63,40.45-92.66c4.05-5.87,8.56-11.04,13.41-15.35c3.98-3.54,10.1-8.25,17.2-8.25
		c12.27,0,17.36,13.07,19.04,17.36c7.56,19.39,16.87,30.84,30.21,37.12c5.36,2.53,10.74,3.76,16.45,3.76
		c7.18,0,14.72-1.95,23.05-5.96c26.27-12.64,42.07-35.23,54.05-55.66c10.52-17.93,23.19-27.02,37.65-27.02
		c10.03,0,20.21,4.29,31.12,13.11c20.76,16.78,69.71,63.93,75.89,139.27c2.05,24.98-4.67,47.45-11.44,62.79
		c9.51-4.78,13.29-12.26,15.29-21.55c3.97-18.4,15.45-21.15,21.93-21.15c2.07,0,4.25,0.28,6.49,0.82
		c9.73,2.37,13.95,8.41,15.77,13.07c1.98,5.06,2.17,11.15,0.55,18.08c-3.99,17.12-11.96,31.65-23.04,42.02
		c-11.47,10.72-26.37,17.1-43.09,18.44c-18.15,1.46-36.57,4.99-54.37,8.4C312.2,375.44,287.16,380.23,261.43,380.24z"/>
	<path id="尾巴-底" class="st2" d="M392.13,324.29c16.34-4.72,25.43-14.6,29.02-31.22c2.19-10.16,7.31-15.76,17.27-13.34
		c10.13,2.46,11.72,10.8,9.55,20.13c-7.21,30.95-27.79,50.97-60.97,53.46c0,0-8.33,0.57-14.28,1.84
		c-5.96,1.27-11.81,1.97-11.81,1.97s11.15-6.56,19.68-15.75C385.33,336.26,392.13,324.29,392.13,324.29z"/>
	<path id="头部-底" class="st2" d="M250.25,370.72c-43.95-2.61-87.95-3.57-130.29-17.53c-50.34-16.59-72.77-55.31-61.18-107.03
		c7.22-32.22,20.23-62.19,39.04-89.45c3.43-4.96,7.45-9.7,11.95-13.7c10.5-9.34,16.37-7.77,21.57,5.58
		c6.99,17.92,16.76,33.57,34.85,42.1c16.03,7.56,31.95,5.2,47.4-2.23c26.49-12.74,43.6-34.76,57.99-59.29
		c14.65-24.98,32.48-29.68,55.08-11.41c33.9,27.39,67.65,73.65,72.51,132.88c1.63,19.87-2.02,65.41-29.73,90.73
		C341.5,366.9,289.34,372.13,250.25,370.72z"/>
	<path id="眼睛-底" class="st3" d="M290.74,347.75c47.3,0.41,84.08-34.4,85.01-80.46c0.87-43.29-36.97-80.51-81.95-80.6
		c-46.44-0.09-85.66,37.1-85.43,81.02C208.6,312.19,244.79,347.35,290.74,347.75z M134.18,212.08
		c-31.11-0.53-58.24,26.04-58.68,57.46c-0.43,31.2,22.91,56.12,53.35,56.95c31.25,0.85,58.38-26.31,58.81-58.86
		C188.05,237.82,163.76,212.59,134.18,212.08z"/>
	<path id="眼球-右" class="st1" d="M291.89,214.23c-8.06,0-15.69,1.81-22.52,5.03c4.28,3.74,6.99,9.23,6.99,15.36
		c0,11.26-9.13,20.39-20.39,20.39c-5.4,0-10.31-2.1-13.96-5.53c-1.96,5.53-3.03,11.47-3.03,17.67c0,29.22,23.69,52.91,52.91,52.91
		c29.22,0,52.91-23.69,52.91-52.91S321.11,214.23,291.89,214.23z"/>
	<path id="眼球-左" class="st1" d="M128.78,234.62c-4.15,0-8.14,0.72-11.84,2.04c2.52,2.62,4.08,6.18,4.08,10.1
		c0,8.04-6.52,14.56-14.56,14.56c-4.15,0-7.88-1.73-10.54-4.51c-1.65,4.1-2.57,8.57-2.57,13.25c0,19.57,15.87,35.44,35.44,35.44
		c19.57,0,35.44-15.87,35.44-35.44C164.22,250.48,148.35,234.62,128.78,234.62z"/>
	<path id="耳朵-右" class="st3" d="M272.34,155.05c0,0,4.87-11.57,11.15-21.65c4.38-7.02,7.75-13.36,17.71-14.43
		c7.29-0.79,12.89,4.68,19.03,9.18c14.29,10.48,25.59,26.9,25.59,26.9c5.89,11.95-12.69,7.41-36.08,8.53
		c-13.78,0.66-24.66,4.05-32.8,3.28C270.93,166.29,269.84,161.18,272.34,155.05z"/>
	<path id="耳朵-左" class="st3" d="M131.58,176.83c-6.46-33.74-17.71-33.78-33.74-0.13c-1.45,6.22,15.09-0.66,25.59,1.97
		C129.31,180.14,131.29,180.64,131.58,176.83z"/>
	<path class="st3" d="M414.7,330.87c-0.33-6.29-1.7-11.91-4.21-16.77c-2.75,2.74-5.99,5.02-9.76,6.89c0.97,2.15,1.9,4.24,2.82,7.91
		C406.17,339.4,414.05,341.37,414.7,330.87z"/>
	<path class="st3" d="M429.79,314.47c12.76,0.52,0.02-16.56-9.27-18.79c-1.04,3.94-2.42,7.47-4.17,10.61
		c1.29,0.58,2.18,0.5,5.57,2.93C426.51,312.51,427.47,314.38,429.79,314.47z"/>
</g>
</svg>
